<mxfile host="65bd71144e">
    <diagram id="qQf0cBVRzW2vtGTFK7Lr" name="第 1 页">
        <mxGraphModel dx="564" dy="502" grid="1" gridSize="10" guides="1" tooltips="1" connect="1" arrows="1" fold="1" page="1" pageScale="1" pageWidth="827" pageHeight="1169" math="0" shadow="0">
            <root>
                <mxCell id="0"/>
                <mxCell id="1" parent="0"/>
                <mxCell id="6" style="edgeStyle=none;html=1;" parent="1" edge="1">
                    <mxGeometry relative="1" as="geometry">
                        <mxPoint x="350" y="860" as="targetPoint"/>
                        <mxPoint x="350" y="800" as="sourcePoint"/>
                    </mxGeometry>
                </mxCell>
                <mxCell id="14" style="edgeStyle=none;html=1;fontSize=20;" parent="1" source="9" edge="1">
                    <mxGeometry relative="1" as="geometry">
                        <mxPoint x="170" y="540" as="targetPoint"/>
                    </mxGeometry>
                </mxCell>
                <mxCell id="9" value="浏览器" style="shape=ext;double=1;rounded=0;whiteSpace=wrap;html=1;fontSize=20;" parent="1" vertex="1">
                    <mxGeometry x="110" y="110" width="120" height="80" as="geometry"/>
                </mxCell>
                <mxCell id="10" value="浏览器缓存" style="shape=ext;double=1;rounded=0;whiteSpace=wrap;html=1;fontSize=20;" parent="1" vertex="1">
                    <mxGeometry x="400" y="90" width="120" height="80" as="geometry"/>
                </mxCell>
                <mxCell id="11" value="服务器" style="shape=ext;double=1;rounded=0;whiteSpace=wrap;html=1;fontSize=20;" parent="1" vertex="1">
                    <mxGeometry x="560" y="80" width="120" height="80" as="geometry"/>
                </mxCell>
                <mxCell id="16" value="发起HTTP请求" style="shape=singleArrow;whiteSpace=wrap;html=1;fontSize=20;" parent="1" vertex="1">
                    <mxGeometry x="170" y="240" width="310" height="110" as="geometry"/>
                </mxCell>
                <mxCell id="17" value="发起HTTP请求" style="shape=singleArrow;whiteSpace=wrap;html=1;fontSize=20;" parent="1" vertex="1">
                    <mxGeometry x="170" y="350" width="310" height="110" as="geometry"/>
                </mxCell>
            </root>
        </mxGraphModel>
    </diagram>
</mxfile>